<svg width="12" height="12" viewBox="0 0 12 12" fill="none" xmlns="http://www.w3.org/2000/svg">
<path fill-rule="evenodd" clip-rule="evenodd" d="M10.596 4.9394C11.5723 3.96309 11.5723 2.38017 10.596 1.40386C9.61971 0.427553 8.0368 0.427553 7.06049 1.40386L5.64627 2.81808L6.35338 3.52518L7.76759 2.11097C8.35338 1.52518 9.30313 1.52518 9.88891 2.11097C10.4747 2.69676 10.4747 3.6465 9.88891 4.23229L7.76759 6.35361C7.18181 6.9394 6.23206 6.9394 5.64627 6.35361L4.93917 7.06072C5.91548 8.03703 7.49839 8.03703 8.4747 7.06072L10.596 4.9394ZM1.40386 7.0606C0.427553 8.03691 0.427553 9.61982 1.40386 10.5961C2.38017 11.5724 3.96309 11.5724 4.9394 10.5961L6.35361 9.18192L5.6465 8.47481L4.23229 9.88903C3.6465 10.4748 2.69676 10.4748 2.11097 9.88903C1.52518 9.30324 1.52518 8.3535 2.11097 7.76771L4.23229 5.64639C4.81808 5.0606 5.76782 5.0606 6.35361 5.64639L7.06072 4.93928C6.08441 3.96297 4.50149 3.96297 3.52518 4.93928L1.40386 7.0606Z" fill="#323844"/>
</svg>
