<svg width="210" height="17" viewBox="0 0 210 17" fill="none" xmlns="http://www.w3.org/2000/svg">

<path d="M4.782 10.2941C6.26124 10.3298 7.52311 10.4658 9.22385 10.1788C8.66551 7.66248 7.84003 5.41169 6.83119 3.3459C6.0978 5.5436 4.98111 7.93958 4.782 10.2941ZM7.97194 0.728412C9.90581 6.03806 12.0612 11.7451 13.8922 16.7851C13.0609 17.1137 12.6859 16.9328 11.7269 16.8988C11.0142 15.2578 10.8649 13.0551 9.67849 11.8886C7.98024 12.0313 5.65975 11.7891 3.87107 12.1168C3.0713 13.518 2.75272 15.403 2.05002 16.8988C1.27432 17.0008 0.579084 17.0896 0 16.7851C1.89571 11.3535 3.90757 6.03889 5.92109 0.728412C6.64702 0.513537 7.27588 0.670338 7.97194 0.728412Z" fill="#323844"/>
<path d="M20.6097 0.452943C22.0549 3.25793 23.4952 6.07039 24.9379 8.87869C26.5383 6.26784 27.5869 3.10196 29.1499 0.452943C29.627 0.452943 30.591 0.267935 31.0855 0.569092C30.2608 2.61331 29.0305 4.92052 28.0117 7.05765C27.3729 8.39253 26.2031 9.92071 25.9617 11.1585C25.6099 12.9638 26.2852 14.5841 26.1882 16.6241C25.634 16.7801 24.4559 16.8282 23.9116 16.6241C23.837 14.6977 24.3754 12.9928 24.0236 11.2705C23.8751 10.5396 23.1774 9.55484 22.7709 8.76503C21.4377 6.16662 19.8838 3.18907 18.4435 0.680262C18.9065 0.103668 19.6764 0.520973 20.6097 0.452943Z" fill="#323844"/>
<path d="M40.2206 10.2909C41.6982 10.3265 42.9625 10.4593 44.6608 10.178C44.1049 7.65926 43.2786 5.40597 42.2706 3.34268C41.5339 5.53955 40.4214 7.93635 40.2206 10.2909ZM43.4064 0.726018C45.3427 6.03898 47.4981 11.7402 49.3291 16.7819C48.5011 17.1104 48.127 16.9329 47.1663 16.8939C46.4503 15.2587 46.3035 13.051 45.1179 11.8854C43.418 12.0289 41.0975 11.7858 39.3096 12.1127C38.5099 13.5156 38.1921 15.3981 37.4869 16.8939C36.7146 16.9984 36.0168 17.0872 35.4361 16.7819C37.3351 11.3511 39.3462 6.03981 41.3588 0.726018C42.0864 0.506995 42.712 0.665454 43.4064 0.726018Z" fill="#323844"/>
<path d="M77.4105 10.1656C76.5295 8.91036 73.936 8.64239 71.9433 9.02485C71.7591 10.8409 71.6628 12.9216 71.9433 14.9476C75.6177 16.1788 79.556 13.2153 77.4105 10.1656ZM76.1578 6.97731C77.4537 5.84486 77.8436 3.62892 76.3843 2.53712C75.2062 1.65522 73.347 1.92402 71.9424 2.07833C71.779 3.78821 71.6786 5.91372 71.9424 7.20546C72.9081 7.66259 74.793 7.31414 76.1578 6.97731ZM76.9542 7.99942C78.1804 8.84813 79.5294 9.37827 79.8024 10.9629C80.7531 16.4882 74.7706 17.1345 69.8949 16.5421C69.9447 12.1244 69.8036 5.10981 70.0077 0.485439C74.6213 -0.216431 81.2111 0.935929 78.6641 6.74833C78.1008 7.17477 77.608 7.6684 76.9542 7.99942Z" fill="#323844"/>
<path d="M95.796 6.18085C97.6486 3.04982 93.2731 1.03879 90.6714 2.19032C90.24 3.34849 90.4432 5.98838 90.6714 7.31745C92.3547 7.59621 94.9407 7.62358 95.796 6.18085ZM93.5195 9.02483C95.1489 11.8755 97.4611 14.04 99.327 16.6566C98.8483 16.9827 97.2537 16.6898 96.8206 16.6566C94.5831 14.3768 93.1296 11.313 90.7851 9.13849C90.284 11.2997 90.6 14.1486 90.6714 16.6566C90.0035 16.9213 89.2212 16.7794 88.6247 16.7686C88.6164 11.5063 88.584 5.82743 88.5085 0.600743C91.5516 0.51612 95.056 0.151911 96.8206 1.62617C99.385 4.23702 97.5632 9.12688 93.5195 9.02483Z" fill="#323844"/>
<path d="M111.08 10.0535C112.558 10.09 113.824 10.2211 115.521 9.93571C114.965 7.42358 114.142 5.1703 113.13 3.10701C112.394 5.29972 111.28 7.69819 111.08 10.0535ZM114.27 0.485367C116.203 5.80082 118.357 11.4987 120.19 16.5421C119.36 16.8714 118.988 16.6939 118.025 16.6574C117.312 15.0172 117.163 12.8137 115.978 11.6439C114.279 11.7891 111.958 11.5435 110.169 11.8704C109.37 13.275 109.053 15.1582 108.348 16.6574C107.575 16.7628 106.877 16.8482 106.298 16.5421C108.194 11.1105 110.205 5.80165 112.219 0.485367C112.946 0.269663 113.573 0.427293 114.27 0.485367Z" fill="#323844"/>
<path d="M140.791 2.19024C140.55 2.82989 140.026 3.17833 139.537 3.55913C138.09 2.63243 136.826 1.80778 134.984 1.85009C131.123 1.93803 128.455 5.52287 128.946 9.70671C129.496 14.3867 135.637 17.1419 139.309 13.4674C140.005 13.7188 140.502 14.1718 140.791 14.8322C134.898 20.107 125.59 15.0852 126.895 6.97639C127.417 3.74663 130.252 0.786502 133.617 0.143537C136.655 -0.436376 139.079 0.83711 140.791 2.19024Z" fill="#323844"/>
<path d="M158.883 0.44726C159.236 1.29017 158.209 1.94558 157.744 2.49645C156.169 4.354 154.374 6.48533 152.847 8.41837C154.753 11.5212 157.458 13.8309 159.564 16.7296C158.899 17.0499 158.087 16.7553 157.06 16.8449C154.918 14.546 153.221 11.8049 150.911 9.67194C150.552 11.9211 150.853 14.2864 150.796 16.7305C150.149 16.8118 149.676 16.9039 148.863 16.7305C148.893 12.2571 148.828 5.63578 148.863 0.676238C149.609 0.606549 150.017 0.564238 150.683 0.676238C150.827 3.00087 150.738 5.37196 150.796 7.73558C152.102 7.04865 152.836 5.42671 153.872 4.20467C154.952 2.93616 155.976 1.66433 156.947 0.448919C157.777 0.562579 158.375 0.384208 158.883 0.44726Z" fill="#323844"/>
<path d="M176.049 2.01694C173.587 2.31146 171.455 1.93066 169.332 2.24509C169.094 4.03211 169.154 5.591 169.22 7.37139C170.636 7.76297 173.203 7.34235 175.252 7.48339C175.434 7.80363 175.434 8.75936 175.252 9.07877C173.435 9.12772 170.88 8.84896 169.331 9.19077C168.929 11.1512 169.313 12.9067 169.219 14.9982C171.349 15.6221 173.745 14.7501 176.047 15.34C176.034 16.0253 175.927 16.2816 175.596 16.8209C172.773 16.6135 170.233 16.7985 167.281 16.7081C167.133 11.6764 167.092 6.21239 167.281 0.536043C170.224 0.692014 172.846 0.252309 175.596 0.649703C176.05 0.800696 175.933 1.52662 176.049 2.01694Z" fill="#323844"/>
<path d="M192.478 0.535985C192.66 0.93006 192.813 1.55975 192.594 2.01688C191.303 1.8327 190.123 1.9812 188.952 1.90488C188.629 6.30691 188.887 12.116 188.952 16.5919C188.283 16.7976 187.59 16.8491 186.901 16.708C186.923 12.1085 186.926 7.21536 186.787 2.24503C185.644 1.64686 184.456 2.05172 183.026 2.01688C182.761 1.63857 183.102 1.08354 183.141 0.649644C186.285 0.262206 189.114 0.506948 192.478 0.535985Z" fill="#323844"/>
<path d="M209.24 0.535985C209.419 0.93006 209.573 1.55975 209.356 2.01688C208.062 1.8327 206.881 1.9812 205.713 1.90488C205.39 6.30691 205.648 12.116 205.713 16.5919C205.043 16.7976 204.35 16.8491 203.66 16.708C203.682 12.1085 203.687 7.21536 203.546 2.24503C202.405 1.64686 201.217 2.05172 199.789 2.01688C199.521 1.63857 199.864 1.08354 199.902 0.649644C203.047 0.262206 205.877 0.506948 209.24 0.535985Z" fill="#323844"/>

<defs>
<clipPath id="clip0">
</clipPath>
</defs>
</svg>
