<?xml version="1.0" standalone="no"?>
<!DOCTYPE svg PUBLIC "-//W3C//DTD SVG 20010904//EN"
 "http://www.w3.org/TR/2001/REC-SVG-20010904/DTD/svg10.dtd">
<svg version="1.0" xmlns="http://www.w3.org/2000/svg"
 width="700.000000pt" height="700.000000pt" viewBox="0 0 700.000000 700.000000"
 preserveAspectRatio="xMidYMid meet">
<metadata>
Created by potrace 1.11, written by Peter Selinger 2001-2013
</metadata>
<g transform="translate(0.000000,700.000000) scale(0.100000,-0.100000)"
fill="#000000" stroke="none">
<path d="M1285 6408 c-351 -32 -645 -312 -690 -658 -3 -25 -6 -1042 -6 -2260
0 -1960 2 -2223 16 -2288 44 -213 174 -395 356 -503 75 -45 206 -93 279 -104
25 -3 1045 -6 2267 -5 2385 0 2278 -2 2413 49 130 50 280 167 357 281 61 89
112 220 128 325 7 47 8 4454 1 4503 -35 240 -188 461 -398 572 -48 26 -196 83
-206 80 -1 -1 -27 2 -57 5 -74 10 -4358 12 -4460 3z"/>
</g>
</svg>
